{"title":"La Bataille Alger - DVDRIP FRENCH","uid":4928664,"size":718329856,"categoryP":"video","categoryS":"movies","magnet":"?xt=urn:btih:691ad969795282919f947c68e5a7c5727c97efc3&amp;dn=La+Bataille+Alger+-+DVDRIP+FRENCH&amp;tr=udp%3A%2F%2Ftracker.openbittorrent.com%3A80&amp;tr=udp%3A%2F%2Fopen.demonii.com%3A1337&amp;tr=udp%3A%2F%2Ftracker.coppersurfer.tk%3A6969&amp;tr=udp%3A%2F%2Fexodus.desync.com%3A6969","seeders":1,"leechers":0,"uploader":"lebonprince","files":1,"time":1243952269,"description":"La Bataille d'Alger\nRÃƒÂ©alisÃƒÂ© par Gillo Pontecorvo\nAvec Jean Martin, Yacef Saadi, Brahim Haggiag   Plus...\nFilm algÃƒÂ©rien, italien. Genre : Guerre, Drame\nDurÃƒÂ©e : 1h 30min. AnnÃƒÂ©e de production : 1966\nTitre original : La Battaglio di Algeri\nDistribuÃƒÂ© par Carlotta Films\n\nSynopsis :\nEn 1957, l'affrontement sanglant entre les paras du colonel Matthieu et les troupes du FLN dans la casbah d'Alger.\n\nGeneral\nComplete name                    : D:DivX FilmsLa Bataille Alger.avi\nFormat                           : AVI\nFormat/Info                      : Audio Video Interleave\nFile size                        : 685 MiB\nDuration                         : 1h 56mn\nOverall bit rate                 : 820 Kbps\nWriting application              : VirtualDubMod 1.5.1.1a (build 1639/release)\nWriting library                  : VirtualDubMod build 1639/release\n\nVideo\nFormat                           : MPEG-4 Visual\nFormat settings, BVOP            : No\nFormat settings, QPel            : No\nFormat settings, GMC             : No warppoints\nFormat settings, Matrix          : Default (H.263)\nCodec ID                         : DX50\nCodec ID/Hint                    : DivX 5\nDuration                         : 1h 56mn\nBit rate                         : 679 Kbps\nWidth                            : 560 pixels\nHeight                           : 304 pixels\nDisplay aspect ratio             : 16/9\nFrame rate                       : 25.000 fps\nResolution                       : 24 bits\nColorimetry                      : 4:2:0\nScan type                        : Progressive\nBits/(Pixel*Frame)               : 0.160\nStream size                      : 568 MiB (83%)\nWriting library                  : DivX 5.0.5 (UTC 2003-04-24)\n\nAudio\nFormat                           : MPEG Audio\nFormat version                   : Version 1\nFormat profile                   : Layer 3\nCodec ID                         : 55\nCodec ID/Hint                    : MP3\nDuration                         : 1h 56mn\nBit rate mode                    : Constant\nBit rate                         : 128 Kbps\nChannel(s)                       : 2 channels\nSampling rate                    : 44.1 KHz\nResolution                       : 16 bits\nStream size                      : 107 MiB (16%)\nAlignment                        : Aligned on interleaves\nInterleave, duration             : 26 ms (0.65 video frame)\nInterleave, preload duration     : 496 ms\n\n","torrent":{"xt":"urn:btih:691ad969795282919f947c68e5a7c5727c97efc3","amp;dn":"La+Bataille+Alger+-+DVDRIP+FRENCH","amp;tr":["udp%3A%2F%2Ftracker.openbittorrent.com%3A80","udp%3A%2F%2Fopen.demonii.com%3A1337","udp%3A%2F%2Ftracker.coppersurfer.tk%3A6969","udp%3A%2F%2Fexodus.desync.com%3A6969"],"infoHash":"691ad969795282919f947c68e5a7c5727c97efc3","infoHashBuffer":{"type":"Buffer","data":[105,26,217,105,121,82,130,145,159,148,124,104,229,167,197,114,124,151,239,195]},"announce":[],"urlList":[]}}